name C:\Users\u0101727\Documents\MyRepositories\upper-imu-dc\Results\main_tracking\Case_48\ABD01_linearAccelerations_groundFrame.mot
datacolumns 4
datarows 47
range 6.31000000 6.77000000
endheader 
time	radius_imu_x	radius_imu_y	radius_imu_z	
          6.31000000	          0.18557732	          9.63874476	         -0.10525625	
          6.32000000	          0.13907897	          9.64086226	         -0.10155953	
          6.33000000	          0.08750686	          9.64245440	         -0.09372232	
          6.34000000	          0.03134131	          9.64357802	         -0.08162430	
          6.35000000	         -0.02883719	          9.64424853	         -0.06518989	
          6.36000000	         -0.09230187	          9.64445017	         -0.04442497	
          6.37000000	         -0.15815232	          9.64416745	         -0.01949457	
          6.38000000	         -0.22529276	          9.64344947	          0.00915494	
          6.39000000	         -0.29242077	          9.64248069	          0.04069254	
          6.40000000	         -0.35805247	          9.64161312	          0.07389729	
          6.41000000	         -0.42063240	          9.64131221	          0.10732829	
          6.42000000	         -0.47871729	          9.64201255	          0.13965269	
          6.43000000	         -0.53115995	          9.64396562	          0.16995189	
          6.44000000	         -0.57718584	          9.64718542	          0.19779736	
          6.45000000	         -0.61633120	          9.65149667	          0.22311040	
          6.46000000	         -0.64830138	          9.65662600	          0.24596641	
          6.47000000	         -0.67281548	          9.66228971	          0.26641550	
          6.48000000	         -0.68948022	          9.66826641	          0.28432457	
          6.49000000	         -0.69786694	          9.67448057	          0.29915275	
          6.50000000	         -0.69729567	          9.68083985	          0.31037984	
          6.51000000	         -0.68735671	          9.68734618	          0.31733829	
          6.52000000	         -0.66792628	          9.69396712	          0.31956290	
          6.53000000	         -0.63925801	          9.70059646	          0.31690397	
          6.54000000	         -0.60198514	          9.70702921	          0.30957518	
          6.55000000	         -0.55704046	          9.71295090	          0.29816790	
          6.56000000	         -0.50553885	          9.71795982	          0.28360576	
          6.57000000	         -0.44866197	          9.72162534	          0.26704180	
          6.58000000	         -0.38757416	          9.72355879	          0.24973578	
          6.59000000	         -0.32339919	          9.72347585	          0.23293424	
          6.60000000	         -0.25726878	          9.72124029	          0.21775280	
          6.61000000	         -0.19039670	          9.71688007	          0.20507410	
          6.62000000	         -0.12412348	          9.71057313	          0.19548866	
          6.63000000	         -0.05990529	          9.70260856	          0.18930650	
          6.64000000	          0.00073400	          9.69334394	          0.18661687	
          6.65000000	          0.05627382	          9.68317369	          0.18735398	
          6.66000000	          0.10527860	          9.67250629	          0.19135039	
          6.67000000	          0.14647934	          9.66174239	          0.19837779	
          6.68000000	          0.17885223	          9.65125606	          0.20817355	
          6.69000000	          0.20169143	          9.64138785	          0.22045401	
          6.70000000	          0.21466378	          9.63245497	          0.23491754	
          6.71000000	          0.21784764	          9.62477195	          0.25124307	
          6.72000000	          0.21173771	          9.61865686	          0.26912490	
          6.73000000	          0.19720572	          9.61439951	          0.28835994	
          6.74000000	          0.17542442	          9.61220309	          0.30892649	
          6.75000000	          0.14778974	          9.61214106	          0.33096407	
          6.76000000	          0.11586419	          9.61415608	          0.35464773	
          6.77000000	          0.08132829	          9.61809066	          0.38004076	
